<svg xmlns="http://www.w3.org/2000/svg" viewBox="0 0 649.55 838.33"><g id="Layer_2" data-name="Layer 2"><g id="Layer_1-2" data-name="Layer 1"><path d="M0,670.15a34.09,34.09,0,0,1,11.6-16.64c3.05-2.5,3.37-8.75,4.15-13.43.45-2.77-.77-5.79-1-8.71-.12-1.77-.43-4.46.54-5.22,5.53-4.35,11.28-11.51,17.21-11.77,48.84-2.12,97.09-9.09,145.29-16.48,49.15-7.54,98.37-13.67,148.23-13.58,10.45,0,20.89-2.15,32.29-3.4-4.62-18.16-8.83-34.69-13-51.22Q293,324.09,240.86,118.46C232.05,83.48,225,48,217.18,12.81c-.79-3.53-1.26-6.5,2.32-9.47C225.32-1.48,228-1.48,229.61,6q8.4,39,15.78,78.17c4.25,22.75,7.76,45.64,11.86,70C305.73,118.22,354.73,89.59,417.7,100c-12.42,30.48-30.05,55.72-58.2,72.36-27.95,16.52-58.6,19.64-91.35,16.37,26.17,131.51,69,257.71,104.82,385.79l2,.19c.59-1.72,1.7-3.45,1.69-5.17-.35-38.61-.66-77.23-1.47-115.84-.1-4.82-2.16-10.11-4.78-14.24-3.19-5-4.81-9.64-4.35-15.71,3.53-46.47-4.52-91.77-14.52-136.83-1.11-5-3.55-9.77-4.63-14.8-1.53-7.19,1.77-12.47,7.31-12.81,6.7-.42,9.53,3.46,10.47,11.07,1.84,14.9,4.66,29.69,6.86,44.56,4.15,28.13,8.15,56.28,12.25,84.42a42.68,42.68,0,0,0,1.36,4.75c2.13-1.72,3.79-3,5.38-4.35,20.12-17.07,41.54-32,67.22-39.51,22.33-6.52,44.1-5.69,66.13,6.93-12.83,24.81-33.29,41.35-56.63,54.36-23.82,13.28-50.2,17-78.28,16.57,2.29,45.3-1.65,90.45,5.69,137.06,14.13-1.09,28-2.08,41.84-3.25,18-1.53,35.92-4.07,53.91-4.42,8.42-.16,17,3.6,25.32,6.06,1.35.4,2.86,3.3,2.79,5-.38,10.13-1.67,20.24-1.76,30.36-.11,13.29-1.21,26.15-10,37.37,2.49.84,4.39,1.41,6.24,2.11,19.29,7.33,25,28.15,12.11,44.34-4.65,5.86-7.11,5.81-12.12.3-17.09-18.8-34.88-36.5-59.32-46.15-6.54-2.59-11.56-9-17.41-13.41a26.25,26.25,0,0,0-6.7-3.78c-8.63-3.19-17.65-5.5-25.95-9.37-7.09-3.3-7.4-6.22-4.1-13.15.29-.61.95-1.19.94-1.78-.05-3.25.79-7.2-.75-9.51-1-1.51-5.84-1.53-8.46-.68-4.22,1.37-8,4-12,6.13-1.59.86-3.06,1.93-4.66,2.75-10.6,5.45-11,5.66-9,17.39.77,4.57-.56,7.55-3.37,10.87-24.41,28.9-47.6,58.8-61.61,94.31-6.66,16.89-10.38,34.94-15.32,52.5-2.49,8.86.51,17.1,4,24.91,4.35,9.6,9.52,18.83,14.67,28.87-21.89,1.48-43.67,7.87-66.26-.1-9-3.18-19.66-3.06-29.48-2.67-41.73,1.65-83.43,4-125.14,6.07-13.53.69-27,1.7-40.58,2.14-2.51.08-5.19-1.67-7.61-2.94a25.8,25.8,0,0,1-4.81-3.7c-2.89-2.52-7.88-4.91-8.14-7.72-.81-8.59-.82-17.58,1.06-25.92.69-3,7.34-5.24,11.64-6.83,5.4-2,11.17-3,16.61-4.37-8.45-3-16.76-5.44-24.65-8.84S14.54,768.23,16,759.09c.66-4,0-8.88,2.15-11.8,5.62-7.77,3.69-14.19-.23-21.89s-4.58-16.58.37-23L0,678.28ZM270.89,170.63C324.62,191.29,386.61,154.43,395,112,346.63,106.86,288.67,134.09,270.89,170.63ZM392,423.77c36.53,7.34,88.91-15.7,108.3-47.22C462.38,358.6,415.06,390.37,392,423.77Z"/><path d="M649.55,403l-4.64,7.4c-3.44-6.3-7.44-11.15-8.82-16.66-2.94-11.74-4.61-23.81-6.63-35.77-1-6-1.31-12.12-2.56-18.05-1.07-5.08,1.58-6.69,5.58-7.09,4.92-.49,12.23,7.9,10.48,12.43-4,10.21-1.89,19.94,1.2,29.7,1.68,5.32,3.59,10.56,5.39,15.84Z"/><path d="M571.75,462c.28,5.66.66,9.85.67,14.05,0,6.09-.51,12.19-.3,18.27.47,13.15,10.86,20.24,23.45,16.28,11.81-3.72,19.69-14.77,20-28.5.49-18.81-5-36.53-10.23-54.28-6.75-22.91-13.52-45.81-20-68.8a32.05,32.05,0,0,1-.89-12.06c.24-2.1,2.47-4.76,4.46-5.6,1.64-.7,5.38.24,6.22,1.64,2.37,3.94,5.33,8.54,5.2,12.79-.75,23.8,7.13,45.74,13.4,68.07,5.42,19.31,11.49,38.53,11.38,58.92-.15,26.57-20.89,43.12-47,37.13-3.3-.76-6.62-3.09-9.07-5.55C556.42,501.72,557.16,476.19,571.75,462Z"/><path d="M314.8,807.35c15.05-16.07,32.75-28.81,51.54-40.09,40-24,83.27-41.1,126.21-58.84.55-.23,1.27,0,3.89,0-5.16,4.69-8.74,9.12-13.32,11.89-13.29,8.06-27,15.41-40.52,23.1-27.64,15.73-55,32-83,47-14,7.52-29.11,12.87-43.71,19.21Z"/><path d="M479.62,127.49H488c3,31.89,16.86,60.78,23.69,91.49,2.48,11.14,4.59,22.67,4.56,34,0,19.38-11.86,29.1-31.2,27.68a22.67,22.67,0,0,1-6-.84c-3-1.1-8.38-2.76-8.34-4.08.12-5.13.85-10.95,3.53-15.12,2.42-3.74,5.41-.38,6.64,2.91,4,10.66,5.37,11.09,14.24,3.75,11.36-9.4,13-22.16,9.91-35.15-3.56-15.07-9.16-29.64-13.46-44.54-4.23-14.67-8.26-29.42-11.71-44.29C478.67,138.43,479.62,133.07,479.62,127.49Z"/><path d="M456.91,673.15,335.25,741c-2.53-4.91-.06-10.19,4.09-13.85a168.3,168.3,0,0,1,23.56-18c21.19-12.88,42.79-25.08,64.3-37.44a59.55,59.55,0,0,1,11.66-5.33C447,663.88,452.3,666.19,456.91,673.15Z"/><path d="M371.37,824.34c2.38-2.08,4.49-4.63,7.18-6.19,32.18-18.64,64.47-37.07,96.65-55.72,10.26-5.94,20.25-12.37,30.36-18.57l1.63,1.28c-1.94,2.93-3.31,6.59-5.93,8.66-10.4,8.24-21.17,16-31.87,23.9-7.95,5.85-16,11.56-24,17.31-.89.64-1.87,1.15-2.82,1.71-9.77,5.88-19.53,11.81-29.35,17.61-3,1.8-6.12,3.83-9.46,4.8-10.2,3-20.54,5.51-30.83,8.21C372.39,826.34,371.88,825.34,371.37,824.34Z"/><path d="M341.66,755.76c38.21-34.86,84.08-55.64,132.14-72.4l1.44,1.79c-2.91,2.84-5.4,6.47-8.83,8.36-8.07,4.45-16.3,9-25,11.86-29.24,9.78-54.68,26.65-80.91,42.11-5.79,3.41-11.79,6.46-17.69,9.69Z"/><path d="M337.85,715.08c1.83-3,3.32-6.19,5.53-8.84,22.1-26.53,50.3-43.44,83.45-52.42,1.24-.34,2.53-.5,3.79-.75l1.1,1.7c-8,6.33-15.6,13.42-24.23,18.81C392,683.24,375.83,691.79,360.05,701c-7.58,4.42-14.89,9.27-22.33,13.93Z"/><path d="M490.42,740.42Q419.2,783.85,347.9,827.16c-2.29,1.38-5.65,1-8.52,1.42l-1-1.63c2.8-2.24,5.38-4.87,8.46-6.63,5.27-3,10.91-5.38,16.3-8.21,2.78-1.45,6.37-2.69,7.84-5.1,5.17-8.45,14.42-10.2,22-14.78,21.57-13.11,42.82-26.75,64.55-39.58,10-5.89,20.8-10.37,31.23-15.48Z"/><path d="M465.47,210c-3.51-6.92-8.13-13.28-10.05-20.38-4.27-15.84-7.33-32-10.61-48.11-1.23-6,3.31-7.61,7.8-7.5,4.17.11,9.57,1.07,8.41,7.07-3.34,17.31,1.77,33.06,8.21,48.56C472.1,196.58,474.27,203,465.47,210Z"/><path d="M416,821.81l91-55.3,1,.46c-1.33,2-2.25,4.59-4.06,6-20.43,16-40.46,32.59-61.85,47.19-6.44,4.4-16.76,3.1-25.3,4.42C416.46,823.66,416.2,822.73,416,821.81Z"/><path d="M519.2,114.25c5.47-1.64,7.42-.59,8.49,5.09,3.22,17,7.56,33.75,11.16,50.67.5,2.37-.7,5.09-1.12,7.65-2.63-1-6-1.32-7.74-3.15a26.66,26.66,0,0,1-5.84-9.69C518.5,148.35,519.58,131.24,519.2,114.25Z"/><path d="M552.22,349.79h7.08c2.8,16.61,6,32.61,8,48.76.73,5.79-1.23,11.93-2.12,19.23C553.54,407.35,548.92,380.34,552.22,349.79Z"/><path d="M458.82,820.16c15.42-10.27,29.83-19.86,44.21-29.45C503.31,804.54,478.12,821.86,458.82,820.16Z"/><path d="M408.4,642c-11.59,14.1-27,20.48-42,28C372,655.88,395.07,640.14,408.4,642Z"/><path d="M552.72,309.27c-10.1-3.2-14.34-8.83-11.71-15.12,1.27-3,8.23-3.51,13.25-.91S559.17,298.38,552.72,309.27Z"/><path d="M484.71,72.47c1.11,6.65-3.63,6.93-8,7-5.35.11-7.81-3.12-7.61-8.23.17-4.55,2.08-8.2,7.3-7.79S485.69,66.06,484.71,72.47Z"/><path d="M523.14,66.74c1.52,5.79-3.2,7.18-7.18,8.13s-8.78-4.88-8.5-9.6c.27-4.48,2.63-7.26,7.39-6.86S524,60.06,523.14,66.74Z"/><path d="M630.25,299.89c-8.16.11-12-3.27-12.08-8.24,0-5.58,4-6.51,8.19-6.76,5.26-.32,10.68,3.92,9.47,8C634.91,296.07,631.47,298.46,630.25,299.89Z"/><path d="M449.08,88.83c-7.18-.06-11.31-4.41-11.05-9.66.17-3.49,1.22-6,5.54-5.94,5.41.13,10.87,5,10,10.43C453.22,85.94,450.06,87.77,449.08,88.83Z"/><path d="M588,307c-5.41-2.71-11.13-2-10.14-9,.63-4.41,2.67-7.21,7.27-7.2s9.47,4.62,8.31,8.65C592.65,302.29,589.9,304.52,588,307Z"/><path d="M337.72,716.29l-23,23.2c-1.3-9.74,8.46-15.28,9.35-23.71l13.78.65Z"/></g></g></svg>