<?xml version="1.0" encoding="UTF-8"?>
<svg id="Layer_2" data-name="Layer 2" xmlns="http://www.w3.org/2000/svg" viewBox="0 0 414.11 483.33">
  <defs>
    <style>
      .cls-1 {
        fill: #fff;
      }
    </style>
  </defs>
  <g id="Layer_1-2" data-name="Layer 1">
    <g>
      <circle class="cls-1" cx="351.3" cy="267.54" r="61.78" transform="translate(-5.49 7.37) rotate(-1.19)"/>
      <path class="cls-1" d="M344.85,123.44h1.52c1.36,0,2.7.08,4.04.16h.61c11.36,0,22.49-3.13,32.19-9.04,9.69-5.92,17.57-14.39,22.77-24.48,5.19-10.1,7.5-21.43,6.68-32.76-.82-11.33-4.75-22.21-11.36-31.44-6.6-9.24-15.62-16.48-26.07-20.93-10.44-4.45-21.92-5.93-33.16-4.29-11.23,1.64-21.8,6.35-30.53,13.61-8.73,7.26-15.3,16.78-18.98,27.52-.42,1.62-.91,3.23-1.44,4.85-5.44,16.45-15.92,30.78-29.97,40.93-14.04,10.15-30.93,15.62-48.26,15.62h-1.41c-.25,0-.49,0-.73,0-.91-.06-1.82-.09-2.73-.1-.21-.02-.42-.03-.62-.06h-.53c-1.55,0-3.1.08-4.64.19h-1.26c-17.33,0-34.21-5.47-48.25-15.62-13.67-9.88-23.95-23.72-29.5-39.62-.79-3.43-1.87-6.8-3.25-10.07-4.72-11.21-12.64-20.78-22.77-27.51-4.04-2.69-8.37-4.86-12.88-6.52-.19-.07-.38-.14-.57-.21-.39-.14-.79-.28-1.18-.41-.47-.16-.95-.31-1.43-.46-.13-.04-.26-.08-.4-.12-2.92-.88-5.91-1.56-8.95-2.01-11.24-1.65-22.71-.17-33.16,4.28-10.45,4.45-19.47,11.69-26.08,20.93C5.95,35.1,2.01,45.98,1.19,57.3c-.83,11.33,1.49,22.66,6.68,32.76,3.42,6.65,8.02,12.59,13.52,17.57,14.84,15.33,23.15,35.84,23.12,57.21.04,21.63-8.46,42.4-23.65,57.79-.67.68-1.35,1.34-2.04,1.99-8.5,8.7-14.24,19.71-16.51,31.65s-.96,24.29,3.76,35.5c4.72,11.21,12.64,20.77,22.77,27.5,10.13,6.73,22.02,10.31,34.18,10.31s24.05-3.59,34.18-10.31c10.13-6.73,18.05-16.29,22.77-27.5,4.72-11.21,6.02-23.55,3.76-35.5-2.27-11.94-8.01-22.96-16.51-31.65l-.02.03c-.7-.65-1.36-1.31-2.04-1.99-15.19-15.42-23.71-36.19-23.71-57.83,0-13.51,3.32-26.68,9.51-38.42,9.17,2.53,17.88,6.65,25.72,12.21,13.7,9.72,24.09,23.4,29.8,39.19,2.1,9.76,6.54,18.93,13.04,26.68,9.31,11.11,22.24,18.6,36.51,21.15,2.77.5,5.57.79,8.36.9.17,0,.35,0,.53.01.68.02,1.36.04,2.04.04.68,0,1.36-.02,2.04-.04.17,0,.35,0,.53-.01,2.79-.11,5.58-.41,8.36-.9,14.27-2.55,27.2-10.03,36.51-21.15,6.49-7.75,10.93-16.92,13.04-26.67,5.71-15.79,16.1-29.47,29.8-39.19,13.93-9.88,30.58-15.19,47.66-15.2Z"/>
      <path class="cls-1" d="M65.08,417.54c-3.61-.02-7.16.87-10.34,2.58-3.18,1.71-5.88,4.18-7.86,7.2-3.26-5.98-9.65-9.64-17.8-9.64-7.47,0-13.01,2.71-16.43,8.41-.68-5.02-2.86-6.92-6.66-6.93-4.49,0-5.99,3-5.99,6.93v50.68c0,4.21,2.31,6.52,6.53,6.52s6.52-2.31,6.52-6.52v-32.07c0-8.42,4.89-14,12.5-14s12.51,5.31,12.51,14v32.07c0,4.48,2.17,6.52,6.52,6.52s6.66-2.31,6.66-6.52v-32.07c0-8.29,5.17-14,12.5-14s12.51,5.31,12.51,14v32.07c0,4.48,2.17,6.52,6.52,6.52,4.62,0,6.79-2.04,6.79-6.52v-30.71c0-18.75-9.65-28.52-24.46-28.52Z"/>
      <path class="cls-1" d="M132.3,416.83c-18.34,0-33.02,14.41-33.02,33.29-.03,4.35.8,8.67,2.45,12.69s4.08,7.69,7.15,10.77c3.07,3.08,6.72,5.53,10.74,7.19,4.02,1.66,8.33,2.51,12.68,2.5,15.62,0,26.63-7.88,26.63-14.13.01-1.64-.62-3.22-1.77-4.39-1.15-1.17-2.71-1.84-4.35-1.87-1.04-.01-2.07.18-3.02.58-.96.4-1.82.99-2.54,1.74-4.02,3.5-9.21,5.39-14.54,5.29-12.4,0-18.61-7.59-20.09-18.31h40.75c6.38,0,9.91-3.13,9.91-8.84,0-11.84-11.96-26.52-30.97-26.52ZM113.29,442.12c2.45-7.88,10.33-12.76,19.16-12.76s16.3,4.89,17.79,12.76h-36.95Z"/>
      <path class="cls-1" d="M201.28,417.94c-6.93,0-13.06,3.8-15.63,9.24-.95-5.29-2.17-7.6-6.93-7.6-3.93,0-5.71,2.71-5.71,6.93v47.38c0,6.28,1.22,9.41,6.25,9.41,5.29,0,6.52-3.12,6.52-9.1v-29.62c0-8.02,4.48-14.13,12.91-14.13,2.78-.05,5.49.92,7.61,2.72,1.33,1.23,3.07,1.9,4.88,1.9,3.81,0,6.25-2.99,6.25-6.66,0-6.65-9.24-10.46-16.17-10.46Z"/>
      <path class="cls-1" d="M255.34,416.85c-18.34,0-33.01,14.4-33.01,33.29-.03,4.35.8,8.67,2.44,12.69,1.65,4.03,4.07,7.69,7.14,10.77s6.72,5.53,10.74,7.19c4.02,1.66,8.33,2.51,12.68,2.5,15.63,0,26.63-7.88,26.63-14.13.01-1.64-.63-3.22-1.77-4.39-1.14-1.17-2.71-1.84-4.35-1.87-1.04,0-2.06.18-3.02.59-.96.4-1.82.99-2.54,1.74-4.02,3.5-9.2,5.39-14.54,5.29-12.41,0-18.62-7.61-20.11-18.34l40.77.03c6.38,0,9.91-3.13,9.91-8.84,0-11.84-11.95-26.52-30.97-26.52ZM236.31,442.12c2.44-7.88,10.33-12.76,19.15-12.76s16.3,4.88,17.8,12.76h-36.95Z"/>
      <path class="cls-1" d="M317.24,447.67l21.34-17.53c.85-.61,1.55-1.4,2.05-2.32.49-.92.77-1.94.8-2.98,0-3.54-2.85-6.11-6.52-6.11-1.83.06-3.57.79-4.9,2.04l-20.78,18.34v-43.88c0-4.91-2.18-7.48-6.52-7.48s-6.65,2.58-6.65,7.48v80.87c0,4.9,2.17,7.2,6.65,7.2s6.52-2.31,6.52-7.2v-19.29l24.32,23.88c2.02,1.88,3.81,2.57,5.44,2.57,1.63-.05,3.17-.73,4.31-1.9,1.14-1.17,1.78-2.73,1.79-4.36,0-1.76-.68-3.53-2.85-5.57l-25-23.77Z"/>
      <path class="cls-1" d="M407.72,417.81c-4.77,0-5.99,4.61-6.26,9.41-3.4-6.65-11.95-10.32-20.79-10.32-18.2,0-30.7,14.4-30.7,33.29s12.64,33.14,30.7,33.14c8.71,0,17.26-4.06,20.53-10.05.67,6.52,2.71,9.64,6.79,9.64,4.75,0,6.12-2.71,6.12-8.15v-49.9c0-4.75-2.18-7.06-6.39-7.06ZM382.04,470.25c-11,0-18.88-8.83-18.88-20.1h0c0-10.87,7.88-20.11,18.88-20.11s18.89,9.24,18.89,20.11-7.89,20.1-18.89,20.1Z"/>
    </g>
  </g>
</svg>