<?xml version="1.0" encoding="UTF-8"?>
<svg id="Layer_2" data-name="Layer 2" xmlns="http://www.w3.org/2000/svg" viewBox="0 0 1369.41 342.13">
  <defs>
    <style>
      .cls-1 {
        fill: #fff;
      }
    </style>
  </defs>
  <g id="Layer_1-2" data-name="Layer 1">
    <g>
      <path class="cls-1" d="M685.06,129.3c-15.72,0-29.04,8.52-35.7,19.18-6.39-11.72-18.91-18.91-34.9-18.91-14.65,0-25.57,5.33-32.23,16.52-1.33-9.86-5.59-13.59-13.05-13.59-8.79,0-11.72,5.86-11.72,13.59v99.37c0,8.26,4.53,12.78,12.79,12.78s12.79-4.53,12.79-12.78v-62.87c0-16.52,9.59-27.44,24.51-27.44s24.51,10.39,24.51,27.44v62.87c0,8.79,4.26,12.78,12.79,12.78s13.05-4.53,13.05-12.78v-62.87c0-16.25,10.12-27.44,24.51-27.44s24.51,10.39,24.51,27.44v62.87c0,8.79,4.26,12.78,12.79,12.78,9.06,0,13.32-3.99,13.32-12.78v-60.21c0-36.76-18.91-55.94-47.95-55.94Z"/>
      <path class="cls-1" d="M816.86,127.96c-35.96,0-64.73,28.24-64.73,65.27s28.77,65,64.73,65c30.64,0,52.21-15.45,52.21-27.7,0-7.19-5.86-12.25-11.99-12.25-4.26,0-7.46,1.33-10.92,4.53-6.93,6.13-16.52,10.39-28.5,10.39-24.24,0-36.5-14.92-39.43-35.96h79.92c12.52,0,19.45-6.13,19.45-17.31,0-23.18-23.44-51.95-60.74-51.95ZM779.56,177.51c4.8-15.45,20.25-25.04,37.56-25.04s31.97,9.59,34.9,25.04h-72.46Z"/>
      <path class="cls-1" d="M952.12,130.09c-13.59,0-25.57,7.46-30.64,18.11-1.86-10.39-4.26-14.92-13.59-14.92-7.73,0-11.19,5.33-11.19,13.59v92.97c0,12.25,2.4,18.38,12.25,18.38,10.39,0,12.79-6.13,12.79-17.85v-58.07c0-15.72,8.79-27.71,25.31-27.71,5.86,0,10.12,1.6,14.92,5.33,2.66,2.13,5.33,3.73,9.59,3.73,7.46,0,12.25-5.86,12.25-13.05,0-13.05-18.12-20.51-31.7-20.51Z"/>
      <path class="cls-1" d="M1058.1,127.96c-35.96,0-64.73,28.24-64.73,65.27s28.77,65,64.73,65c30.64,0,52.21-15.45,52.21-27.7,0-7.19-5.86-12.25-11.99-12.25-4.26,0-7.46,1.33-10.92,4.53-6.93,6.13-16.52,10.39-28.5,10.39-24.24,0-36.5-14.92-39.43-35.96h79.92c12.52,0,19.45-6.13,19.45-17.31,0-23.18-23.44-51.95-60.74-51.95ZM1020.81,177.51c4.8-15.45,20.25-25.04,37.56-25.04s31.97,9.59,34.9,25.04h-72.46Z"/>
      <path class="cls-1" d="M1228.53,235.05l-49.02-46.62,41.82-34.36c4-3.2,5.59-6.93,5.59-10.39,0-6.93-5.59-11.99-12.79-11.99-2.66,0-6.39,1.07-9.59,4l-40.76,35.96v-86.05c0-9.59-4.26-14.65-12.79-14.65s-13.05,5.06-13.05,14.65v158.5c0,9.59,4.26,14.12,13.05,14.12s12.79-4.53,12.79-14.12v-37.83l47.68,46.89c4,3.73,7.46,5.06,10.66,5.06,6.66,0,11.99-5.86,11.99-12.25,0-3.46-1.33-6.93-5.59-10.92Z"/>
      <path class="cls-1" d="M1356.89,129.83c-9.32,0-11.72,9.06-12.25,18.38-6.66-13.05-23.44-20.25-40.76-20.25-35.7,0-60.2,28.24-60.2,65.27s24.77,65,60.2,65c17.05,0,33.83-7.99,40.23-19.71,1.33,12.79,5.33,18.91,13.32,18.91,9.32,0,11.99-5.33,11.99-15.98v-97.76c0-9.32-4.26-13.85-12.52-13.85ZM1306.54,232.66c-21.58,0-37.03-17.32-37.03-39.43s15.45-39.43,37.03-39.43,37.03,18.11,37.03,39.43-15.45,39.43-37.03,39.43Z"/>
      <circle class="cls-1" cx="363.62" cy="277.69" r="64.14" transform="translate(-89.86 338.45) rotate(-45)"/>
      <path class="cls-1" d="M356.93,128.09c.53,0,1.05,0,1.57.02,1.38.1,2.78.16,4.19.17.21,0,.43,0,.64,0,35.43,0,64.14-28.72,64.14-64.14S398.76,0,363.33,0c-28.15,0-52.06,18.13-60.7,43.36-.01.03-.02.07-.03.1-.42,1.59-.89,3.16-1.4,4.71-.03.1-.05.19-.07.29-11.25,34.08-43.36,58.67-81.2,58.67-.49,0-.98,0-1.47-.01-.14-.01-.29-.02-.43-.03-.47-.03-.94-.06-1.41-.08-.79-.04-1.59-.06-2.39-.07-.12,0-.23,0-.35,0-.02,0-.04,0-.06,0-.02,0-.05,0-.07,0s-.05,0-.07,0c-.02,0-.04,0-.06,0-.12,0-.24,0-.35,0-.8,0-1.6.03-2.39.07-.47.02-.94.05-1.41.08-.14,0-.29.01-.43.03-.49,0-.98.01-1.47.01-37.43,0-69.23-24.06-80.81-57.56-5.26-22.59-22.46-40.59-44.59-47-.2-.06-.41-.12-.61-.17-.61-.17-1.23-.34-1.84-.49-.48-.12-.97-.23-1.46-.34-.39-.09-.78-.18-1.18-.26-.97-.2-1.95-.37-2.94-.52-.08-.01-.17-.02-.25-.04-.99-.15-1.99-.28-2.99-.38-.02,0-.05,0-.07,0-2.19-.23-4.41-.35-6.66-.35C28.72,0,0,28.72,0,64.14c0,18.9,8.17,35.88,21.18,47.62,14.82,15.38,23.94,36.27,23.94,59.31s-9.4,44.59-24.62,60.03c-.69.7-1.39,1.39-2.11,2.06,0,0-.01,0-.02.02C7.09,244.75.14,260.56.14,277.98c0,35.42,28.72,64.14,64.14,64.14s64.14-28.72,64.14-64.14c0-17.42-6.95-33.23-18.23-44.79,0,0-.01-.01-.02-.02-.71-.68-1.42-1.36-2.11-2.06-15.23-15.44-24.62-36.64-24.62-60.03,0-14.41,3.58-27.99,9.88-39.9,26.74,7.38,48.22,27.41,57.6,53.26,5.63,26.6,27.75,47.1,55.16,50.33.03,0,.07,0,.1.01.68.08,1.37.15,2.06.2.34.03.68.05,1.02.08.55.04,1.09.07,1.64.1.75.03,1.51.05,2.27.06.16,0,.33.01.49.01.02,0,.05,0,.07,0s.05,0,.07,0c.16,0,.33-.01.49-.01.76,0,1.52-.02,2.27-.06.55-.02,1.1-.06,1.64-.1.34-.02.68-.05,1.02-.08.69-.06,1.38-.12,2.06-.2.03,0,.07,0,.1-.01,27.41-3.23,49.52-23.73,55.16-50.33,11.92-32.86,43.41-56.34,80.38-56.34Z"/>
    </g>
  </g>
</svg>